<svg height="480.703pt" viewBox="1 1 480.703 480.703" width="480.703pt" xmlns="http://www.w3.org/2000/svg" xmlns:xlink="http://www.w3.org/1999/xlink"><linearGradient id="a"><stop offset="0" stop-color="#f9a86d"/><stop offset=".503" stop-color="#f05361"/><stop offset="1" stop-color="#b72563"/></linearGradient><linearGradient id="b" gradientTransform="matrix(1.000618 0 0 -1.000618 0 472.268208)" gradientUnits="userSpaceOnUse" x1="-17.5294" x2="503.5428" xlink:href="#a" y1="231.6251" y2="231.6251"/><linearGradient id="c" gradientTransform="matrix(1.000618 0 0 -1.000618 0 472.268208)" gradientUnits="userSpaceOnUse" x1="-17.5294" x2="503.5428" xlink:href="#a" y1="392.4327" y2="392.4327"/><linearGradient id="d" gradientTransform="matrix(1.000618 0 0 -1.000618 0 472.268208)" gradientUnits="userSpaceOnUse" x1="-17.5294" x2="503.5428" xlink:href="#a" y1="362.119" y2="362.119"/><linearGradient id="e" gradientTransform="matrix(1.000618 0 0 -1.000618 0 472.268208)" gradientUnits="userSpaceOnUse" x1="-17.5294" x2="503.5428" xlink:href="#a" y1="331.7406" y2="331.7406"/><linearGradient id="f" gradientTransform="matrix(1.000618 0 0 -1.000618 0 472.268208)" gradientUnits="userSpaceOnUse" x1="-17.5294" x2="503.5428" xlink:href="#a" y1="134.8541" y2="134.8541"/><linearGradient id="g" gradientTransform="matrix(1.000618 0 0 -1.000618 0 472.268208)" gradientUnits="userSpaceOnUse" x1="-17.5294" x2="503.5428" xlink:href="#a" y1="263.672" y2="263.672"/><linearGradient id="h" gradientTransform="matrix(1.000618 0 0 -1.000618 0 472.268208)" gradientUnits="userSpaceOnUse" x1="-17.5294" x2="503.5428" xlink:href="#a" y1="135.4846" y2="135.4846"/><linearGradient id="i" gradientTransform="matrix(1.000618 0 0 -1.000618 0 472.268208)" gradientUnits="userSpaceOnUse" x1="-17.5294" x2="503.5428" xlink:href="#a" y1="31.3323" y2="31.3323"/><linearGradient id="j" gradientTransform="matrix(1.000618 0 0 -1.000618 0 472.268208)" gradientUnits="userSpaceOnUse" x1="-17.5294" x2="503.5428" xlink:href="#a" y1="263.6893" y2="263.6893"/><path d="m472.984375 0h-464.96875c-4.425781 0-8.015625 3.589844-8.015625 8.015625v464.96875c0 4.425781 3.589844 8.015625 8.015625 8.015625h464.96875c4.425781 0 8.015625-3.589844 8.015625-8.015625v-464.96875c0-4.425781-3.589844-8.015625-8.015625-8.015625zm-8.019531 464.964844h-448.933594v-48.097656h448.933594zm0-64.132813h-448.933594v-384.800781h448.933594zm0 0" fill="url(#b)"/><path d="m151.339844 94.074219c35.851562-18.34375 78.335937-18.34375 114.1875 0 3.953125 2 8.773437.414062 10.773437-3.535157 1.996094-3.953124.414063-8.773437-3.539062-10.773437-.027344-.011719-.054688-.027344-.085938-.042969-40.34375-20.636718-88.144531-20.636718-128.484375 0-3.949218 2-5.535156 6.820313-3.535156 10.773438 1.980469 3.914062 6.742188 5.511718 10.683594 3.578125zm0 0" fill="url(#c)"/><path d="m258.371094 108.425781c-31.300782-16.285156-68.574219-16.285156-99.878906 0-3.972657 1.949219-5.617188 6.75-3.667969 10.726563 1.949219 3.976562 6.753906 5.617187 10.726562 3.667968.03125-.015624.058594-.03125.089844-.046874 26.824219-13.949219 58.761719-13.949219 85.585937 0 3.949219 2 8.769532.414062 10.769532-3.535157 1.996094-3.949219.414062-8.773437-3.535156-10.769531-.03125-.015625-.058594-.03125-.089844-.042969zm0 0" fill="url(#d)"/><path d="m179.941406 151.472656c17.800782-9.519531 39.183594-9.519531 56.984375 0 3.949219 2 8.773438.417969 10.769531-3.535156 2-3.949219.414063-8.773438-3.535156-10.769531-.03125-.015625-.058594-.027344-.085937-.042969-22.308594-11.757812-48.976563-11.757812-71.28125 0-3.976563 1.949219-5.617188 6.75-3.667969 10.726562 1.949219 3.972657 6.753906 5.617188 10.726562 3.664063.03125-.011719.058594-.027344.089844-.042969zm0 0" fill="url(#e)"/><path d="m144.191406 337.140625c40.304688 20.789063 88.179688 20.789063 128.484375 0 3.972657-1.949219 5.613281-6.75 3.664063-10.726563-1.949219-3.972656-6.753906-5.613281-10.726563-3.664062-.027343.011719-.058593.027344-.085937.042969-35.824219 18.460937-78.367188 18.460937-114.191406 0-3.972657-1.949219-8.777344-.308594-10.726563 3.664062-1.933594 3.941407-.335937 8.703125 3.582031 10.683594zm0 0" fill="url(#f)"/><path d="m208.433594 160.332031c-26.5625 0-48.097656 21.535157-48.097656 48.101563 0 26.5625 21.535156 48.097656 48.097656 48.097656 26.566406 0 48.101562-21.535156 48.101562-48.097656-.03125-26.554688-21.550781-48.070313-48.101562-48.101563zm0 80.167969c-17.710938 0-32.066406-14.355469-32.066406-32.066406 0-17.710938 14.355468-32.066406 32.066406-32.066406 17.710937 0 32.066406 14.355468 32.066406 32.066406-.019531 17.699218-14.367188 32.046875-32.066406 32.066406zm0 0" fill="url(#g)"/><path d="m400.832031 288.601562c-26.5625 0-48.097656 21.535157-48.097656 48.097657 0 26.566406 21.535156 48.101562 48.097656 48.101562 26.566407 0 48.101563-21.535156 48.101563-48.101562-.03125-26.550781-21.546875-48.070313-48.101563-48.097657zm0 80.164063c-17.707031 0-32.066406-14.355469-32.066406-32.066406 0-17.710938 14.359375-32.066407 32.066406-32.066407 17.710938 0 32.066407 14.355469 32.066407 32.066407-.019532 17.703125-14.363282 32.046875-32.066407 32.066406zm0 0" fill="url(#h)"/><path d="m416.867188 336.699219c0 8.855469-7.179688 16.035156-16.035157 16.035156-8.851562 0-16.03125-7.179687-16.03125-16.035156s7.179688-16.03125 16.03125-16.03125c8.855469 0 16.035157 7.175781 16.035157 16.03125zm0 0" fill="url(#h)"/><g fill="url(#i)"><path d="m32.066406 432.898438h32.066406v16.035156h-32.066406zm0 0"/><path d="m80.167969 432.898438h32.066406v16.035156h-32.066406zm0 0"/><path d="m128.265625 432.898438h32.066406v16.035156h-32.066406zm0 0"/><path d="m336.699219 440.917969c0-13.285157-10.765625-24.050781-24.050781-24.050781-13.28125 0-24.046876 10.765624-24.046876 24.050781 0 13.28125 10.765626 24.046875 24.046876 24.046875 13.277343-.011719 24.039062-10.769532 24.050781-24.046875zm-24.050781 8.015625c-4.425782 0-8.015626-3.589844-8.015626-8.015625 0-4.429688 3.589844-8.019531 8.015626-8.019531 4.429687 0 8.019531 3.589843 8.019531 8.019531-.007813 4.425781-3.59375 8.007812-8.019531 8.015625zm0 0"/><path d="m384.800781 440.917969c0-13.285157-10.769531-24.050781-24.050781-24.050781s-24.050781 10.765624-24.050781 24.050781c0 13.28125 10.769531 24.046875 24.050781 24.046875 13.277344-.011719 24.035156-10.769532 24.050781-24.046875zm-24.050781 8.015625c-4.429688 0-8.015625-3.589844-8.015625-8.015625 0-4.429688 3.585937-8.019531 8.015625-8.019531 4.425781 0 8.015625 3.589843 8.015625 8.019531-.003906 4.425781-3.589844 8.007812-8.015625 8.015625zm0 0"/><path d="m432.898438 440.917969c0-13.285157-10.765626-24.050781-24.046876-24.050781-13.285156 0-24.050781 10.765624-24.050781 24.050781 0 13.28125 10.765625 24.046875 24.050781 24.046875 13.273438-.011719 24.035157-10.769532 24.046876-24.046875zm-24.050782 8.015625c-4.425781 0-8.015625-3.589844-8.015625-8.015625 0-4.429688 3.589844-8.019531 8.015625-8.019531 4.429688 0 8.019532 3.589843 8.019532 8.019531-.007813 4.425781-3.59375 8.007812-8.019532 8.015625zm0 0"/></g><path d="m208.433594 384.800781c97.441406-.039062 176.402344-79.058593 176.367187-176.5-.007812-14.761719-1.863281-29.46875-5.53125-43.765625l49.695313-68.335937h11.953125c4.425781 0 8.015625-3.589844 8.015625-8.015625v-48.101563c0-4.425781-3.589844-8.015625-8.015625-8.015625h-64.132813c-4.429687 0-8.019531 3.589844-8.019531 8.015625v48.101563c0 4.425781 3.589844 8.015625 8.019531 8.015625h.289063l-16.605469 22.832031c-49.375-83.964844-157.464844-112.007812-241.433594-62.632812-83.964844 49.371093-112.003906 157.464843-62.632812 241.429687 31.683594 53.882813 89.523437 86.96875 152.03125 86.972656zm176.367187-336.699219h48.097657v32.066407h-48.097657zm12.097657 48.097657h12.242187l-116.605469 160.335937h-12.242187zm-108.296876 176.367187v16.03125h-48.101562v-16.03125zm-80.167968-224.464844c59.394531-.152343 113.957031 32.695313 141.617187 85.253907l-89.582031 123.175781h-27.984375c-4.429687 0-8.019531 3.589844-8.019531 8.019531v5.632813c-14.902344 4.238281-30.867188 2.519531-44.523438-4.792969-3.976562-1.949219-8.777344-.308594-10.726562 3.667969-1.933594 3.9375-.339844 8.703125 3.578125 10.683594 11.027343 5.6875 23.230469 8.722656 35.640625 8.855468 5.394531-.027344 10.773437-.648437 16.03125-1.851562v9.867187c.011718 2.242188.972656 4.375 2.640625 5.867188-20.84375 4.375-42.554688 1.410156-61.464844-8.390625-3.976563-1.949219-8.777344-.308594-10.726563 3.667968-1.933593 3.941407-.335937 8.703126 3.578126 10.683594 31.300781 16.296875 68.582031 16.296875 99.878906 0 1.589844-.828125 2.847656-2.171875 3.566406-3.808594h34.679688c4.425781 0 8.015624-3.589843 8.015624-8.019531v-29.457031l61.894532-85.101562c14.550781 87.328124-44.445313 169.917968-131.777344 184.46875-87.328125 14.550781-169.917969-44.441407-184.46875-131.773438-14.554688-87.328125 44.445312-169.917969 131.773438-184.46875 8.71875-1.453125 17.539062-2.183594 26.378906-2.179688zm0 0" fill="url(#j)"/></svg>