<?xml version="1.0" encoding="iso-8859-1"?>
<!-- Generator: Adobe Illustrator 19.0.0, SVG Export Plug-In . SVG Version: 6.00 Build 0)  -->
<svg version="1.1" id="Capa_1" xmlns="http://www.w3.org/2000/svg" xmlns:xlink="http://www.w3.org/1999/xlink" x="0px" y="0px"
	 viewBox="0 0 512 512" style="enable-background:new 0 0 512 512;" xml:space="preserve">
<path style="fill:#F9CDAD;" d="M469.333,145.067V435.2c0,18.85-15.283,34.133-34.133,34.133H76.8
	c-18.85,0-34.133-15.283-34.133-34.133V76.8c0-18.85,15.283-34.133,34.133-34.133h358.4c18.85,0,34.133,15.283,34.133,34.133l0,0"/>
<circle style="fill:#D8445E;" cx="256" cy="256" r="153.6"/>
<circle style="fill:#F07A87;" cx="256" cy="256" r="59.733"/>
<circle style="fill:#E6E6E6;" cx="256" cy="256" r="25.6"/>
<rect x="435.2" y="76.8" style="fill:#83AF9B;" width="51.2" height="68.267"/>
<path style="fill:#5D7C6E;" d="M347.366,176.7L335.3,164.634l59.733-59.733c1.596-1.604,3.772-2.5,6.033-2.5H460.8v17.067h-56.201
	L347.366,176.7z"/>
<rect x="310.442" y="159.327" transform="matrix(-0.7071 0.7071 -0.7071 -0.7071 690.5902 80.8746)" style="fill:#83AF9B;" width="36.207" height="48.273"/>
<path d="M164.949,192.614l-14.003-9.762c-4.045,5.794-7.595,11.904-10.624,18.287l15.411,7.322
	C158.362,202.931,161.451,197.632,164.949,192.614z"/>
<path d="M145.067,256c-0.009-10.735,1.536-21.41,4.591-31.701l-16.358-4.864c-16.862,56.806,7.415,117.76,58.701,147.43
	l8.533-14.763C166.263,332.211,145.143,295.62,145.067,256z"/>
<path d="M187.733,256c0,37.7,30.566,68.267,68.267,68.267S324.267,293.7,324.267,256S293.7,187.733,256,187.733
	C218.317,187.776,187.776,218.317,187.733,256z M307.2,256c0,28.279-22.921,51.2-51.2,51.2c-28.279,0-51.2-22.921-51.2-51.2
	c0-28.279,22.921-51.2,51.2-51.2C284.262,204.826,307.174,227.738,307.2,256z"/>
<path d="M221.867,256c0,18.85,15.283,34.133,34.133,34.133c18.85,0,34.133-15.283,34.133-34.133
	c0-18.85-15.283-34.133-34.133-34.133C237.15,221.867,221.867,237.15,221.867,256z M273.067,256c0,9.429-7.637,17.067-17.067,17.067
	c-9.429,0-17.067-7.637-17.067-17.067c0-9.429,7.637-17.067,17.067-17.067C265.429,238.933,273.067,246.571,273.067,256z"/>
<path d="M477.867,435.2V153.6h8.533c4.71,0,8.533-3.823,8.533-8.533V76.8c0-4.71-3.823-8.533-8.533-8.533h-9.387
	c-4.079-19.849-21.547-34.108-41.813-34.133H76.8C53.248,34.159,34.159,53.248,34.133,76.8v358.4
	c0.026,23.552,19.115,42.641,42.667,42.667h358.4C458.752,477.841,477.841,458.752,477.867,435.2z M477.867,136.533h-34.133v-17.067
	H460.8V102.4h-17.067V85.333h34.133V136.533z M51.2,435.2V76.8c0-14.14,11.46-25.6,25.6-25.6h358.4
	c10.812,0.043,20.429,6.878,24.03,17.067H435.2c-4.71,0-8.533,3.823-8.533,8.533v25.6h-25.6c-2.261,0-4.437,0.896-6.033,2.5
	l-30.72,30.763c-66.654-60.322-169.583-55.185-229.897,11.469s-55.185,169.583,11.469,229.897s169.583,55.185,229.897-11.469
	c55.902-61.773,56.132-155.785,0.538-217.83l28.279-28.262h22.067v25.6c0,4.71,3.823,8.533,8.533,8.533h25.6v281.6
	c0,14.14-11.46,25.6-25.6,25.6H76.8C62.66,460.8,51.2,449.34,51.2,435.2z M346.334,187.733L332.8,201.267L310.733,179.2
	l13.534-13.534L346.334,187.733z M330.3,147.567c-3.328-3.328-8.738-3.328-12.066,0l-25.6,25.6c-3.328,3.328-3.328,8.738,0,12.066
	l34.133,34.133c3.328,3.328,8.738,3.328,12.066,0l25.6-25.6c3.328-3.328,3.328-8.738,0-12.066L353.4,170.667l10.88-10.88
	c53.427,60.092,48.026,152.124-12.066,205.551s-152.124,48.026-205.551-12.066s-48.026-152.124,12.066-205.551
	c55.168-49.05,138.317-49.05,193.485,0l-10.88,10.88L330.3,147.567z"/>
<rect x="76.8" y="426.667" width="17.067" height="17.067"/>
<rect x="110.933" y="426.667" width="17.067" height="17.067"/>
<rect x="426.667" y="409.6" width="17.067" height="34.133"/>
<rect x="392.533" y="384" width="17.067" height="59.733"/>
<rect x="358.4" y="418.133" width="17.067" height="25.6"/>
<path d="M494.933,435.2c-0.034,32.973-26.761,59.699-59.733,59.733h-17.067V512H435.2c42.394-0.051,76.749-34.406,76.8-76.8V298.667
	h-17.067V435.2z"/>
<rect x="494.933" y="264.533" width="17.067" height="17.067"/>
<path d="M76.8,17.067h93.867V0H76.8C34.406,0.051,0.051,34.406,0,76.8v76.8h17.067V76.8C17.101,43.827,43.827,17.101,76.8,17.067z"
	/>
<rect y="170.667" width="17.067" height="17.067"/>
<g>
</g>
<g>
</g>
<g>
</g>
<g>
</g>
<g>
</g>
<g>
</g>
<g>
</g>
<g>
</g>
<g>
</g>
<g>
</g>
<g>
</g>
<g>
</g>
<g>
</g>
<g>
</g>
<g>
</g>
</svg>
